<?xml version="1.0" encoding="UTF-8"?>
<svg version="1.1" xmlns="http://www.w3.org/2000/svg" width="900" height="900">
<path d="M0 0 C3.09799981 2.19126816 3.80352112 3.41056336 5 7 C5.31661477 12.41038773 5.11873451 17.68601106 4 23 C3.34 23 2.68 23 2 23 C1.9175 24.175625 1.835 25.35125 1.75 26.5625 C1.28693134 30.29313763 0.12158356 32.83073436 -1.8984375 36.03515625 C-3.67928804 39.21163789 -4.72367671 42.63579046 -5.91796875 46.06640625 C-7.67570921 50.83197697 -9.83326781 55.40901418 -12 60 C-12.66 60 -13.32 60 -14 60 C-14.12117187 60.59167969 -14.24234375 61.18335938 -14.3671875 61.79296875 C-15.26744643 66.03803585 -16.20456621 70.02439661 -18 74 C-18.66 74 -19.32 74 -20 74 C-20.103125 74.86625 -20.20625 75.7325 -20.3125 76.625 C-21.0528308 80.25935118 -22.29180653 82.70562688 -24 86 C-25.71026253 89.9821038 -27.35807666 93.98929397 -29 98 C-29.66 98 -30.32 98 -31 98 C-31.12117187 98.59167969 -31.24234375 99.18335938 -31.3671875 99.79296875 C-32.26744643 104.03803585 -33.20456621 108.02439661 -35 112 C-35.66 112 -36.32 112 -37 112 C-37.13277344 112.62648438 -37.26554688 113.25296875 -37.40234375 113.8984375 C-37.57894531 114.71570313 -37.75554687 115.53296875 -37.9375 116.375 C-38.11152344 117.18710937 -38.28554688 117.99921875 -38.46484375 118.8359375 C-39 121 -39 121 -40 123 C-40.66 123 -41.32 123 -42 123 C-42.3403125 124.918125 -42.3403125 124.918125 -42.6875 126.875 C-43.90089007 132.40072598 -46.33308638 137.05082376 -49 142 C-49.67119793 143.33105806 -50.33945649 144.66362262 -51 146 C-51.66 146 -52.32 146 -53 146 C-53.1546875 146.8971875 -53.1546875 146.8971875 -53.3125 147.8125 C-54.10636936 150.33844795 -54.95572409 151.34885407 -57 153 C-60.20700089 154.0690003 -62.56992069 154.13332529 -65.9375 154.125 C-66.97777344 154.12757813 -68.01804687 154.13015625 -69.08984375 154.1328125 C-71.60829147 154.01787663 -73.64224654 153.86752554 -76 153 C-78.53370588 149.65188866 -79 148.29875783 -79 144 C-79.66 144 -80.32 144 -81 144 C-81 143.34 -81 142.68 -81 142 C-80.34 142 -79.68 142 -79 142 C-78.731875 141.360625 -78.46375 140.72125 -78.1875 140.0625 C-77 138 -77 138 -74 137 C-73.60955794 135.68225804 -73.29044914 134.34332728 -73 133 C-72.03112419 130.98473831 -71.0358679 128.98166034 -70 127 C-69.34 127 -68.68 127 -68 127 C-67.87753906 126.28199219 -67.75507813 125.56398438 -67.62890625 124.82421875 C-66.99400968 121.97309939 -66.07188509 119.50005751 -64.9375 116.8125 C-63.45952539 113.50978227 -63.45952539 113.50978227 -63 110 C-64.02738281 110.19335938 -65.05476562 110.38671875 -66.11328125 110.5859375 C-66.77908203 110.71097656 -67.44488281 110.83601563 -68.13085938 110.96484375 C-69.59456301 111.24002528 -71.05810314 111.51607787 -72.52148438 111.79296875 C-76.67438248 112.57598214 -80.83112247 113.30616707 -85 114 C-89.61416836 114.82445351 -93.64825767 116.27430908 -98 118 C-99.65672637 118.37966646 -101.32070245 118.73760976 -103 119 C-103.33 119.99 -103.66 120.98 -104 122 C-104.804375 122.309375 -105.60875 122.61875 -106.4375 122.9375 C-109.52921144 124.21942913 -109.63533604 125.08871689 -111 128 C-111.91072266 128.433125 -111.91072266 128.433125 -112.83984375 128.875 C-115.41171176 130.2144177 -116.6833422 131.75395036 -118.5 134 C-120.83852995 136.89127339 -122.64279062 138.44008453 -126 140 C-127.68816933 141.64488294 -129.35353315 143.31337542 -131 145 C-134.2344338 147.77237183 -137.67391824 150.25560419 -141.125 152.75 C-141.97320312 153.36359375 -142.82140625 153.9771875 -143.6953125 154.609375 C-146 156 -146 156 -149 156 C-149 156.66 -149 157.32 -149 158 C-149.7734375 158.25394531 -150.546875 158.50789062 -151.34375 158.76953125 C-152.3853125 159.11371094 -153.426875 159.45789063 -154.5 159.8125 C-155.5209375 160.14894531 -156.541875 160.48539063 -157.59375 160.83203125 C-159.36305828 161.4387092 -161.13154294 162.05400747 -162.86181641 162.7644043 C-168.01775503 164.86547178 -172.84155505 165.71423407 -178.375 166.1875 C-179.24133057 166.26572998 -180.10766113 166.34395996 -181.00024414 166.42456055 C-210.26727156 168.86636422 -210.26727156 168.86636422 -222 163 C-222 162.34 -222 161.68 -222 161 C-222.969375 160.731875 -223.93875 160.46375 -224.9375 160.1875 C-225.948125 159.795625 -226.95875 159.40375 -228 159 C-228.33 158.01 -228.66 157.02 -229 156 C-229.9590625 155.566875 -229.9590625 155.566875 -230.9375 155.125 C-233 154 -233 154 -234.25 151.625 C-235 149 -235 149 -235 145 C-235.66 145 -236.32 145 -237 145 C-237.82481968 141.39959663 -238.13516938 138.06648597 -238.125 134.375 C-238.12757813 133.43398438 -238.13015625 132.49296875 -238.1328125 131.5234375 C-238 129 -238 129 -237 126 C-236.34 126 -235.68 126 -235 126 C-234.5359375 124.824375 -234.5359375 124.824375 -234.0625 123.625 C-232.26618705 119.18705036 -232.26618705 119.18705036 -229.6875 117.375 C-223.28759878 114.98859616 -216.74117801 115.02432647 -210.3125 117.3125 C-208 119 -208 119 -207 122 C-207.66 122 -208.32 122 -209 122 C-209.268125 122.804375 -209.53625 123.60875 -209.8125 124.4375 C-210.204375 125.283125 -210.59625 126.12875 -211 127 C-212.485 127.495 -212.485 127.495 -214 128 C-214 131.3 -214 134.6 -214 138 C-212.63875 138.433125 -212.63875 138.433125 -211.25 138.875 C-208 140 -208 140 -206.16308594 141.05810547 C-203.37233759 142.27330943 -201.17901162 142.22631645 -198.140625 142.1953125 C-197.02558594 142.18886719 -195.91054688 142.18242187 -194.76171875 142.17578125 C-193.60285156 142.15902344 -192.44398438 142.14226562 -191.25 142.125 C-190.07566406 142.11597656 -188.90132813 142.10695313 -187.69140625 142.09765625 C-184.79406464 142.07410063 -181.89713559 142.04120652 -179 142 C-179 141.34 -179 140.68 -179 140 C-174.38 139.01 -169.76 138.02 -165 137 C-165 136.34 -165 135.68 -165 135 C-164.35933594 134.76925781 -163.71867187 134.53851563 -163.05859375 134.30078125 C-158.70626365 132.65973875 -154.79467904 131.06114773 -151.0625 128.25 C-148 126 -148 126 -145 126 C-144.62875 125.0409375 -144.62875 125.0409375 -144.25 124.0625 C-142.67012061 121.455699 -141.83219689 121.70804922 -139 121 C-138.29605388 119.68596724 -137.63654342 118.3479743 -137 117 C-135.35353315 115.31337542 -133.68816933 113.64488294 -132 112 C-131.67 111.34 -131.34 110.68 -131 110 C-130.34 110 -129.68 110 -129 110 C-128.773125 109.46375 -128.54625 108.9275 -128.3125 108.375 C-126.5853494 105.24967987 -124.28272284 102.73926741 -122 100 C-120.72147713 97.78412652 -120.72147713 97.78412652 -120 96 C-119.34 96 -118.68 96 -118 96 C-117.62875 94.6696875 -117.62875 94.6696875 -117.25 93.3125 C-115.94241122 89.84738973 -114.33918039 87.83537017 -112 85 C-110.95548562 83.02288349 -109.94301862 81.02749004 -109 79 C-108.34 79 -107.68 79 -107 79 C-106.91878906 78.35675781 -106.83757812 77.71351563 -106.75390625 77.05078125 C-105.70711027 72.814783 -103.83722188 69.10178015 -101.9375 65.1875 C-101.56044922 64.39923828 -101.18339844 63.61097656 -100.79492188 62.79882812 C-99.86829839 60.86347527 -98.93482533 58.93140451 -98 57 C-97.34 57 -96.68 57 -96 57 C-96 56.34 -96 55.68 -96 55 C-99.85740454 56.28580151 -101.72915477 58.55585769 -104.375 61.5625 C-107.06742394 63.94425964 -110.34451026 66 -114 66 C-114 66.66 -114 67.32 -114 68 C-115.92057292 68.71614583 -117.84114583 69.43229167 -119.76171875 70.1484375 C-121.32153023 70.74187363 -122.85913665 71.39565503 -124.375 72.09375 C-127.49396551 73.17053571 -130.02195387 73.1973197 -133.3125 73.125 C-134.38113281 73.10695313 -135.44976562 73.08890625 -136.55078125 73.0703125 C-137.35902344 73.04710937 -138.16726563 73.02390625 -139 73 C-139.653607 67.63497588 -140.18740605 62.94376744 -137.2890625 58.19921875 C-135.29209346 55.93911119 -133.36087053 53.87731874 -131 52 C-130.34 52 -129.68 52 -129 52 C-129 51.34 -129 50.68 -129 50 C-127.34151823 48.98648336 -125.67334039 47.98879205 -124 47 C-122.62437146 45.71034824 -121.29233607 44.37310707 -120 43 C-117.11133753 39.9669044 -114.78061473 37.76428687 -111 36 C-110.57074219 35.56300781 -110.14148438 35.12601562 -109.69921875 34.67578125 C-107.6072628 32.61267986 -105.34094848 31.00093141 -102.9375 29.3125 C-102.05964844 28.68988281 -101.18179688 28.06726563 -100.27734375 27.42578125 C-98 26 -98 26 -96 26 C-95.67 25.01 -95.34 24.02 -95 23 C-90.66666667 20 -90.66666667 20 -88 20 C-87.67 19.01 -87.34 18.02 -87 17 C-85.67532254 16.3162955 -84.34136367 15.65035814 -83 15 C-82.34 14.01 -81.68 13.02 -81 12 C-79.34928604 10.97388051 -77.68029994 9.97691857 -76 9 C-75.29875 8.278125 -74.5975 7.55625 -73.875 6.8125 C-69.50981524 4.06053569 -65.03599732 4.35455176 -60 5 C-56.43539671 6.29848947 -56.09631333 6.81425287 -54.25 10.375 C-51.07434972 20.07740114 -52.98616062 28.89718568 -57 38 C-57.66 38 -58.32 38 -59 38 C-59.185625 39.3303125 -59.185625 39.3303125 -59.375 40.6875 C-59.94412736 43.70387502 -60.76614436 46.20326054 -62 49 C-62.66 49 -63.32 49 -64 49 C-64.0825 49.639375 -64.165 50.27875 -64.25 50.9375 C-65.29825706 55.21788298 -67.14615815 59.01331 -69 63 C-72.49922599 70.60255288 -75.82415356 78.25634039 -79 86 C-77.80375 85.67 -76.6075 85.34 -75.375 85 C-71.84208503 84.10734177 -68.65920891 83.81703955 -65 84 C-65 83.34 -65 82.68 -65 82 C-64.10796875 81.97164063 -63.2159375 81.94328125 -62.296875 81.9140625 C-58.61789014 81.61423334 -55.4889283 81.22479065 -52 80 C-49.68114992 76.88065602 -48.74776332 73.78773571 -48 70 C-47.34 70 -46.68 70 -46 70 C-45.69255859 68.95199219 -45.69255859 68.95199219 -45.37890625 67.8828125 C-44.97478516 66.51769531 -44.97478516 66.51769531 -44.5625 65.125 C-44.29566406 64.22007812 -44.02882813 63.31515625 -43.75390625 62.3828125 C-43 60 -43 60 -42 58 C-41.34 58 -40.68 58 -40 58 C-39.87625 57.278125 -39.7525 56.55625 -39.625 55.8125 C-39.0095069 53.04278106 -38.11555626 50.6029646 -37 48 C-36.34 48 -35.68 48 -35 48 C-34.8453125 46.9790625 -34.8453125 46.9790625 -34.6875 45.9375 C-33.85274981 42.37084011 -32.50527246 39.33777806 -31 36 C-30.34 36 -29.68 36 -29 36 C-28.87625 35.278125 -28.7525 34.55625 -28.625 33.8125 C-28.0095069 31.04278106 -27.11555626 28.6029646 -26 26 C-25.34 26 -24.68 26 -24 26 C-23.87818359 25.03513672 -23.87818359 25.03513672 -23.75390625 24.05078125 C-22.70711027 19.814783 -20.83722188 16.10178015 -18.9375 12.1875 C-18.37192383 11.00510742 -18.37192383 11.00510742 -17.79492188 9.79882812 C-16.86829839 7.86347527 -15.93482533 5.93140451 -15 4 C-14.34 4 -13.68 4 -13 4 C-12.67 3.01 -12.34 2.02 -12 1 C-8.30846481 -0.8457676 -4.02978061 -0.48175083 0 0 Z " fill="#000000" transform="translate(569,367)"/>
<path d="M0 0 C0.66 0 1.32 0 2 0 C2.12117188 0.58007812 2.24234375 1.16015625 2.3671875 1.7578125 C2.53476562 2.53898438 2.70234375 3.32015625 2.875 4.125 C3.11863281 5.27355469 3.11863281 5.27355469 3.3671875 6.4453125 C3.96948802 9.0576881 3.96948802 9.0576881 4.9765625 11.7421875 C6.4819254 16.53406789 7.11103874 21.40977449 7.85546875 26.3671875 C7.97535156 27.13289062 8.09523438 27.89859375 8.21875 28.6875 C8.32123047 29.37199219 8.42371094 30.05648437 8.52929688 30.76171875 C8.98012949 33.13368527 8.98012949 33.13368527 9.98413086 35.8659668 C11.0274809 39.08478066 11.57340755 42.10781071 12.03515625 45.45703125 C12.28942383 47.24850586 12.28942383 47.24850586 12.54882812 49.07617188 C12.71833984 50.30916016 12.88785156 51.54214844 13.0625 52.8125 C13.40381898 55.27786346 13.74867107 57.74274129 14.09765625 60.20703125 C14.24726807 61.2947583 14.39687988 62.38248535 14.55102539 63.50317383 C14.74274127 65.93300836 14.74274127 65.93300836 16 67 C16.34735872 69.09567429 16.63690826 71.20097594 16.90234375 73.30859375 C17.07056641 74.61376953 17.23878906 75.91894531 17.41210938 77.26367188 C17.58766566 78.65489422 17.76279304 80.04617075 17.9375 81.4375 C19.18066658 91.77913276 19.18066658 91.77913276 21.02734375 102.0234375 C22.29574829 108.0180033 22.85496491 114.08081727 23.43261719 120.17504883 C23.62310869 122.1677156 23.82711321 124.15907547 24.03125 126.15039062 C24.90208497 135.14753766 25.16013419 143.97182839 25 153 C25.66 153 26.32 153 27 153 C27.02526563 160.81452752 27.04283105 168.62904458 27.05493164 176.44360352 C27.05997383 179.10441481 27.06680736 181.76522332 27.07543945 184.42602539 C27.08751009 188.24105516 27.09322929 192.05604844 27.09765625 195.87109375 C27.10281754 197.06899033 27.10797882 198.2668869 27.11329651 199.50108337 C27.11337204 200.6021492 27.11344757 201.70321503 27.11352539 202.83764648 C27.115746 203.81249496 27.11796661 204.78734344 27.12025452 205.79173279 C27 208 27 208 26 209 C25.72852669 210.33955286 25.51006376 211.6899734 25.31640625 213.04296875 C25.19330078 213.86990234 25.07019531 214.69683594 24.94335938 215.54882812 C24.69229436 217.28825807 24.44226988 219.02783857 24.19335938 220.76757812 C23.50607719 225.37201263 22.65582576 229.62030501 21 234 C20.34 234 19.68 234 19 234 C18.938125 234.70125 18.87625 235.4025 18.8125 236.125 C17.33602548 241.34944829 14.05747012 244.19632271 9.875 247.375 C5.23647673 249.84273534 0.11007813 249.51693991 -5 249 C-5.66 248.67 -6.32 248.34 -7 248 C-7 247.34 -7 246.68 -7 246 C-7.556875 245.938125 -8.11375 245.87625 -8.6875 245.8125 C-14.51296143 243.76571625 -17.32967393 238.31748595 -19.8671875 233.04296875 C-21.68806765 228.15170792 -22.53979757 223.16082923 -23.421875 218.02734375 C-23.68098936 215.13170472 -23.68098936 215.13170472 -25 214 C-26.08530269 207.29980976 -26.14834175 200.51255478 -26.1328125 193.7421875 C-26.13376923 192.79546173 -26.13472595 191.84873596 -26.13571167 190.87332153 C-26.13638767 188.88169284 -26.1345742 186.89006187 -26.13037109 184.8984375 C-26.1250508 181.90359342 -26.13031742 178.90890178 -26.13671875 175.9140625 C-26.14013969 164.90069631 -25.87317403 153.98130716 -25 143 C-24.34 143 -23.68 143 -23 143 C-23.01740234 142.23921143 -23.03480469 141.47842285 -23.05273438 140.69458008 C-23.16377955 131.92928199 -22.47748405 123.39239173 -21.5 114.6875 C-21.35483519 113.34967797 -21.2103009 112.01178737 -21.06640625 110.67382812 C-20.71709203 107.44849349 -20.36153234 104.22398391 -20 101 C-19.34 101 -18.68 101 -18 101 C-18.04125 99.82566406 -18.0825 98.65132812 -18.125 97.44140625 C-18.125 90.53458554 -16.99554494 83.75681582 -16 76.9375 C-15.80672033 75.58146152 -15.61400763 74.2253421 -15.421875 72.86914062 C-14.95346925 69.57859025 -14.47936892 66.28896801 -14 63 C-13.34 63 -12.68 63 -12 63 C-12.0309375 61.88625 -12.061875 60.7725 -12.09375 59.625 C-12.09375 54.65361212 -11.33382466 49.89026894 -10.5 45 C-10.28537109 43.69482422 -10.28537109 43.69482422 -10.06640625 42.36328125 C-9.71661973 40.24124305 -9.3591135 38.12047972 -9 36 C-8.34 36 -7.68 36 -7 36 C-7.03738281 35.071875 -7.07476562 34.14375 -7.11328125 33.1875 C-7.10938983 28.03007675 -6.12202282 23.05661804 -5.1875 18 C-5.02185547 17.0409375 -4.85621094 16.081875 -4.68554688 15.09375 C-3.69828336 9.66938898 -2.40666002 4.96502926 0 0 Z " fill="#D7092B" transform="translate(452,642)"/>
<path d="M0 0 C1.19625 -0.01675781 2.3925 -0.03351562 3.625 -0.05078125 C9.50928322 0.58259646 13.33019992 3.8169949 17 8.3125 C22.13730718 18.18738153 24.41824509 28.22900507 24 39.3125 C24.66 39.3125 25.32 39.3125 26 39.3125 C26.02312916 46.59671548 26.04091801 53.8809231 26.05181217 61.16516781 C26.05703975 64.54721813 26.06413511 67.9292434 26.07543945 71.3112793 C26.08834267 75.19579777 26.09322924 79.08030597 26.09765625 82.96484375 C26.10281754 84.18461411 26.10797882 85.40438446 26.11329651 86.66111755 C26.11337204 87.78220413 26.11344757 88.90329071 26.11352539 90.05834961 C26.115746 91.05096298 26.11796661 92.04357635 26.12025452 93.06626892 C26 95.3125 26 95.3125 25 96.3125 C24.7207032 98.77443543 24.49997912 101.21788965 24.31640625 103.6875 C24.22576149 104.82348633 24.22576149 104.82348633 24.13328552 105.98242188 C23.93871813 108.42546424 23.75007934 110.86891185 23.5625 113.3125 C22.82401945 122.86884804 22.05194346 132.41342495 20.96484375 141.9375 C20.88391983 142.66646484 20.80299591 143.39542969 20.71961975 144.14648438 C20.12100556 149.19149444 20.12100556 149.19149444 19 150.3125 C18.62868018 152.59831388 18.31572545 154.89365529 18.02734375 157.19140625 C17.93997452 157.8780687 17.85260529 158.56473114 17.7625885 159.27220154 C17.48354795 161.47264942 17.21046431 163.67379091 16.9375 165.875 C16.74973985 167.36398164 16.56159385 168.85291467 16.37304688 170.34179688 C15.91088038 173.99814383 15.45405462 177.65513582 15 181.3125 C14.34 181.3125 13.68 181.3125 13 181.3125 C12.94392578 182.37210937 12.94392578 182.37210937 12.88671875 183.453125 C12.2212693 193.83935559 10.62837673 204.04041282 9 214.3125 C8.34 214.3125 7.68 214.3125 7 214.3125 C6.95101562 215.03953125 6.90203125 215.7665625 6.8515625 216.515625 C6.30459214 223.8714333 5.32489736 231.05772224 4 238.3125 C3.34 238.3125 2.68 238.3125 2 238.3125 C1.67 241.9425 1.34 245.5725 1 249.3125 C0.34 249.3125 -0.32 249.3125 -1 249.3125 C-3.95995872 243.28232621 -5.10596756 237.35281866 -6.1875 230.75 C-6.36474609 229.73486328 -6.54199219 228.71972656 -6.72460938 227.67382812 C-7.54184836 222.84296753 -8.24385949 218.23173459 -8 213.3125 C-8.66 213.3125 -9.32 213.3125 -10 213.3125 C-10.11593506 212.53011963 -10.23187012 211.74773926 -10.35131836 210.94165039 C-10.87577773 207.41878266 -11.40655177 203.89689534 -11.9375 200.375 C-12.11990234 199.14330078 -12.30230469 197.91160156 -12.49023438 196.64257812 C-12.66748047 195.47275391 -12.84472656 194.30292969 -13.02734375 193.09765625 C-13.18968506 192.01363525 -13.35202637 190.92961426 -13.51928711 189.81274414 C-13.74444917 187.38109045 -13.74444917 187.38109045 -15 186.3125 C-15.43332681 183.52096306 -15.81199545 180.74038237 -16.15625 177.9375 C-16.2634436 177.09783691 -16.37063721 176.25817383 -16.4810791 175.39306641 C-16.94147923 171.78562107 -17.39186798 168.17694088 -17.84326172 164.56835938 C-18.17334404 161.94096096 -18.50841444 159.31423222 -18.84375 156.6875 C-18.94482056 155.86459473 -19.04589111 155.04168945 -19.15002441 154.19384766 C-19.31965595 150.43980412 -19.31965595 150.43980412 -21 147.3125 C-21.36264859 144.31245905 -21.66836407 141.32524256 -21.9375 138.31640625 C-22.02249756 137.4125267 -22.10749512 136.50864716 -22.19506836 135.57737732 C-22.46761731 132.67696156 -22.73441495 129.77606121 -23 126.875 C-23.34958193 123.06335802 -23.70451933 119.25226741 -24.0625 115.44140625 C-24.14169678 114.55804092 -24.22089355 113.6746756 -24.30249023 112.76454163 C-24.37927002 111.94706955 -24.4560498 111.12959747 -24.53515625 110.28735352 C-24.63389038 109.20599876 -24.63389038 109.20599876 -24.73461914 108.10279846 C-24.91974693 106.21364825 -24.91974693 106.21364825 -26 104.3125 C-27.37391326 92.62241171 -27.15474336 80.77128077 -27.13037109 69.02197266 C-27.12497327 65.92215162 -27.13036767 62.82247312 -27.13671875 59.72265625 C-27.13605847 57.72395802 -27.13477836 55.72525987 -27.1328125 53.7265625 C-27.13483673 52.81387604 -27.13686096 51.90118958 -27.13894653 50.96084595 C-27.10916462 42.72343431 -26.41074528 35.2143873 -24 27.3125 C-22.9739469 23.3189404 -21.9861067 19.31609321 -21 15.3125 C-20.34 15.3125 -19.68 15.3125 -19 15.3125 C-18.896875 14.590625 -18.79375 13.86875 -18.6875 13.125 C-17.93206053 10.03456579 -16.84468685 7.89506159 -15 5.3125 C-14.34 5.3125 -13.68 5.3125 -13 5.3125 C-12.67 4.3225 -12.34 3.3325 -12 2.3125 C-8.05708558 0.14534667 -4.44147737 0.01435822 0 0 Z " fill="#D7092B" transform="translate(453,11.6875)"/>
<path d="M0 0 C0.33 0.33 0.66 0.66 1 1 C2.55453309 1.36608966 4.12117255 1.68117574 5.69140625 1.97265625 C7.10776367 2.23852539 7.10776367 2.23852539 8.55273438 2.50976562 C9.54595703 2.69216797 10.53917969 2.87457031 11.5625 3.0625 C12.55958984 3.24876953 13.55667969 3.43503906 14.58398438 3.62695312 C17.05536329 4.08811953 19.52736297 4.54563597 22 5 C22 5.66 22 6.32 22 7 C23.5778125 7.3403125 23.5778125 7.3403125 25.1875 7.6875 C30.56804044 9.24959239 33.09526218 12.75292895 36.3125 17.1875 C39.02425418 22.27895683 38.9727424 27.74793221 37.33984375 33.20703125 C34.1081018 40.52391886 28.73398009 44.48322166 21.5625 47.6875 C-5.99111406 57.34996647 -38.9460765 53.53880704 -67.5625 51.625 C-68.51838013 51.5620575 -69.47426025 51.49911499 -70.45910645 51.43426514 C-73.20397236 51.2494474 -75.94771934 51.05306719 -78.69140625 50.8515625 C-79.90350517 50.76856903 -79.90350517 50.76856903 -81.14009094 50.68389893 C-85.82802015 50.32016209 -90.24945629 49.5625975 -94.82286072 48.48010254 C-98.21025875 47.73311386 -101.61767148 47.34422799 -105.0625 46.96484375 C-105.77986328 46.88126114 -106.49722656 46.79767853 -107.23632812 46.71156311 C-109.490401 46.44910573 -111.74508195 46.1925867 -114 45.9375 C-117.00059632 45.59739873 -120.00045231 45.25155747 -123 44.90234375 C-124.03265991 44.78825417 -124.03265991 44.78825417 -125.08618164 44.67185974 C-129.88728091 44.11271909 -129.88728091 44.11271909 -131 43 C-132.91164597 42.65405265 -134.83344683 42.36390175 -136.7578125 42.09765625 C-137.94117188 41.92943359 -139.12453125 41.76121094 -140.34375 41.58789062 C-142.84105735 41.24089906 -145.33845167 40.89453274 -147.8359375 40.54882812 C-153.72682412 39.7104606 -159.29470198 38.72196267 -165 37 C-168.13348511 36.37890837 -171.28244622 35.87330019 -174.4375 35.375 C-175.26443359 35.2409375 -176.09136719 35.106875 -176.94335938 34.96875 C-178.96163765 34.64209225 -180.98073757 34.32051785 -183 34 C-183 33.34 -183 32.68 -183 32 C-183.65484375 31.95101562 -184.3096875 31.90203125 -184.984375 31.8515625 C-204.06763285 30.28824477 -204.06763285 30.28824477 -209 27 C-209 26.34 -209 25.68 -209 25 C-203.77487721 23.53329887 -199.4185766 22.77422598 -194 23 C-194 22.34 -194 21.68 -194 21 C-193.33468262 20.88930176 -192.66936523 20.77860352 -191.98388672 20.66455078 C-188.9467364 20.15633183 -185.9108828 19.64073431 -182.875 19.125 C-181.82828125 18.95097656 -180.7815625 18.77695312 -179.703125 18.59765625 C-174.60903024 17.72714639 -169.90034102 16.65120187 -165 15 C-161.72417405 14.34629235 -158.4299989 13.85626284 -155.125 13.375 C-153.83529297 13.17390625 -153.83529297 13.17390625 -152.51953125 12.96875 C-147.2847183 12.19028009 -142.2913284 11.8649545 -137 12 C-137 11.34 -137 10.68 -137 10 C-133.35547656 9.49013736 -129.70921254 8.99394154 -126.0625 8.5 C-125.04091797 8.35691406 -124.01933594 8.21382813 -122.96679688 8.06640625 C-116.91392631 7.25419998 -111.10659056 6.84717604 -105 7 C-105 6.34 -105 5.68 -105 5 C-100.96646961 4.56398445 -96.93206566 4.13723374 -92.89672852 3.71826172 C-91.53026298 3.57516459 -90.16403884 3.42973891 -88.7980957 3.28173828 C-79.82891332 2.31191863 -71.0218014 1.79204897 -62 2 C-62 1.34 -62 0.68 -62 0 C-17.66131743 -2.48794211 -17.66131743 -2.48794211 0 0 Z " fill="#D7092B" transform="translate(846,428)"/>
<path d="M0 0 C0 0.66 0 1.32 0 2 C1.01658691 1.97389648 1.01658691 1.97389648 2.05371094 1.94726562 C10.86425716 1.82395908 19.50269689 2.59089875 28.25 3.5 C29.6887473 3.64507558 31.12754926 3.7896101 32.56640625 3.93359375 C36.0449213 4.28284677 39.52264608 4.63934763 43 5 C43 5.66 43 6.32 43 7 C44.25554687 6.97164063 45.51109375 6.94328125 46.8046875 6.9140625 C52.32150727 6.91622172 57.67068653 7.59901012 63.125 8.375 C64.07503906 8.50132812 65.02507812 8.62765625 66.00390625 8.7578125 C69.89247752 9.29714277 73.59180231 9.8816132 77.3671875 10.9765625 C82.8262597 12.51449467 88.39234627 13.19531426 94 14 C100.83043318 14.98015185 107.37660544 16.0264021 114 18 C117.13360794 18.62050274 120.28243642 19.12669826 123.4375 19.625 C124.26443359 19.7590625 125.09136719 19.893125 125.94335938 20.03125 C127.96163765 20.35790775 129.98073757 20.67948215 132 21 C132 21.66 132 22.32 132 23 C133.12148438 23.09087891 133.12148438 23.09087891 134.265625 23.18359375 C135.25046875 23.26738281 136.2353125 23.35117187 137.25 23.4375 C138.71179688 23.55931641 138.71179688 23.55931641 140.203125 23.68359375 C142.56461753 23.95074584 144.71901065 24.35371968 147 25 C147 25.66 147 26.32 147 27 C143.35817522 29.42788318 139.91507691 29.92100249 135.6875 30.625 C134.94048828 30.7590625 134.19347656 30.893125 133.42382812 31.03125 C129.23224705 31.75254051 125.27064156 32.14937061 121 32 C121 32.66 121 33.32 121 34 C119.91730835 34.17390259 119.91730835 34.17390259 118.81274414 34.35131836 C115.56197051 34.87585654 112.31223927 35.40659291 109.0625 35.9375 C107.92619141 36.11990234 106.78988281 36.30230469 105.61914062 36.49023438 C104.53955078 36.66748047 103.45996094 36.84472656 102.34765625 37.02734375 C101.34742432 37.18968506 100.34719238 37.35202637 99.31665039 37.51928711 C97.04804965 37.76905318 97.04804965 37.76905318 96 39 C92.67302657 39.67591744 89.29861931 40.08945358 85.9375 40.5625 C85.00744141 40.70107422 84.07738281 40.83964844 83.11914062 40.98242188 C77.6846085 41.75769245 72.48844353 42.14868575 67 42 C67 42.66 67 43.32 67 44 C66.05793701 44.11069824 65.11587402 44.22139648 64.14526367 44.33544922 C60.59813425 44.75319551 57.05156157 45.17552023 53.50512695 45.59912109 C51.97988097 45.78067887 50.45449314 45.96104966 48.92895508 46.14013672 C38.80637664 47.29164444 38.80637664 47.29164444 28.7734375 49.03125 C19.78537047 50.75238726 10.55419968 51.04174667 1.4375 51.625 C0.43411591 51.69036957 -0.56926819 51.75573914 -1.60305786 51.8230896 C-59.91197838 55.58114655 -59.91197838 55.58114655 -84 47 C-85.08474609 46.66355469 -85.08474609 46.66355469 -86.19140625 46.3203125 C-91.11664183 44.59701193 -94.22254708 41.28816211 -97 37 C-97.875 34.0625 -97.875 34.0625 -98 32 C-98.66 32 -99.32 32 -100 32 C-100 28.04 -100 24.08 -100 20 C-99.34 20 -98.68 20 -98 20 C-97.62875 18.576875 -97.62875 18.576875 -97.25 17.125 C-96 14 -96 14 -93.9375 12.8125 C-92.9784375 12.4103125 -92.9784375 12.4103125 -92 12 C-91.67 11.01 -91.34 10.02 -91 9 C-83.63016569 4.04650481 -75.00609303 2.8657564 -66.4296875 1.578125 C-63.17747138 1.3707163 -63.17747138 1.3707163 -62 0 C-41.72975364 -2.85546079 -20.35115896 -1.1419488 0 0 Z " fill="#D7092B" transform="translate(121,428)"/>
<path d="M0 0 C-0.8125 3.4375 -0.8125 3.4375 -2 7 C-2.99 7.33 -3.98 7.66 -5 8 C-5.61067144 9.85744207 -5.61067144 9.85744207 -6 12 C-6.63654342 13.3479743 -7.29605388 14.68596724 -8 16 C-8.66 16 -9.32 16 -10 16 C-10.2578125 16.87011719 -10.515625 17.74023438 -10.78125 18.63671875 C-12.01849258 22.05103241 -13.53383052 24.76743668 -15.5 27.8125 C-16.1084375 28.76769531 -16.716875 29.72289062 -17.34375 30.70703125 C-19 33 -19 33 -21 34 C-22.08136579 35.95258763 -22.97696512 37.96159958 -23.90234375 39.9921875 C-25.04089524 42.07480482 -26.29873726 43.36660678 -28 45 C-28.515625 45.886875 -29.03125 46.77375 -29.5625 47.6875 C-30.036875 48.450625 -30.51125 49.21375 -31 50 C-31.66 50 -32.32 50 -33 50 C-33.185625 50.86625 -33.185625 50.86625 -33.375 51.75 C-34.19029519 54.68506269 -35.09087954 57.12594947 -37.31640625 59.265625 C-40.35702582 62.397957 -42.67036233 66.1244867 -45.16015625 69.69921875 C-45.76730469 70.45847656 -46.37445313 71.21773437 -47 72 C-47.66 72 -48.32 72 -49 72 C-49.08378906 72.54140625 -49.16757812 73.0828125 -49.25390625 73.640625 C-50.25850719 76.81747823 -51.97422933 79.06603503 -53.9375 81.75 C-54.64777344 82.73484375 -55.35804688 83.7196875 -56.08984375 84.734375 C-56.72019531 85.48203125 -57.35054688 86.2296875 -58 87 C-58.66 87 -59.32 87 -60 87 C-60.226875 87.70125 -60.45375 88.4025 -60.6875 89.125 C-62.79218791 93.73526875 -66.04161161 97.06443039 -69.625 100.5625 C-72.04727602 102.86164955 -72.04727602 102.86164955 -73.5 105.5 C-75.29372628 108.48954379 -77.53464895 110.53464895 -80 113 C-80.95284659 114.2803876 -81.88934116 115.57304501 -82.8125 116.875 C-85.53286545 120.59797437 -88.59355821 123.45593473 -92.1171875 126.41015625 C-95.36574236 129.15323059 -98.2686681 132.2268777 -101.1875 135.3125 C-112.37209302 146 -112.37209302 146 -117 146 C-117.33 146.99 -117.66 147.98 -118 149 C-121.0625 150.1875 -121.0625 150.1875 -124 151 C-124 151.66 -124 152.32 -124 153 C-130.93068118 155.64839589 -137.66708965 155.90963197 -145 155 C-148.17386476 153.55959189 -150.13591625 151.945385 -152 149 C-152.9375 145.625 -152.9375 145.625 -153 143 C-153.66 143 -154.32 143 -155 143 C-155.38187393 134.98064747 -151.96812398 128.29063463 -149 121 C-148.34 121 -147.68 121 -147 121 C-146.87625 120.4225 -146.7525 119.845 -146.625 119.25 C-145.51550395 115.25581424 -143.9166681 112.8744994 -141 110 C-139.96731379 108.84381187 -138.94658857 107.67683986 -137.9375 106.5 C-137.43089844 105.9121875 -136.92429688 105.324375 -136.40234375 104.71875 C-134.82518372 102.84200842 -134.82518372 102.84200842 -133 100 C-132.34 100 -131.68 100 -131 100 C-130.7525 99.38125 -130.505 98.7625 -130.25 98.125 C-128.76259631 95.59641373 -127.56321991 95.28160996 -125 94 C-124.7009375 93.38640625 -124.401875 92.7728125 -124.09375 92.140625 C-122.86534754 89.73646591 -121.55877063 88.47727367 -119.5 86.75 C-118.58734375 85.96882812 -118.58734375 85.96882812 -117.65625 85.171875 C-116 84 -116 84 -114 84 C-113.76023438 83.4121875 -113.52046875 82.824375 -113.2734375 82.21875 C-111.7469286 79.55906577 -110.09326485 78.3040474 -107.625 76.5 C-104.48135227 74.18694816 -101.73049708 71.78774021 -99 69 C-98.195625 68.360625 -97.39125 67.72125 -96.5625 67.0625 C-93.91803683 65.01830272 -93.91803683 65.01830272 -91.5 62.4375 C-89.08410906 60.08200634 -86.91260606 58.66434632 -84 57 C-82.16695591 55.68386639 -80.35460688 54.34415018 -78.55078125 52.98828125 C-77 52 -77 52 -75 52 C-74.62875 51.0409375 -74.62875 51.0409375 -74.25 50.0625 C-73 48 -73 48 -70.9375 47.4375 C-70.298125 47.293125 -69.65875 47.14875 -69 47 C-68.67 46.01 -68.34 45.02 -68 44 C-66 43.33333333 -64 42.66666667 -62 42 C-61.67 41.01 -61.34 40.02 -61 39 C-58.07920195 36.92469613 -56.62453269 36 -53 36 C-52.62875 35.0409375 -52.62875 35.0409375 -52.25 34.0625 C-51 32 -51 32 -48.875 31.25 C-48.25625 31.1675 -47.6375 31.085 -47 31 C-47 30.34 -47 29.68 -47 29 C-42.61538462 26 -42.61538462 26 -40 26 C-40 25.34 -40 24.68 -40 24 C-38.09375 22.703125 -38.09375 22.703125 -35.5 21.25 C-32.05478959 19.26462451 -28.86865531 17.2159135 -25.75 14.75 C-22.65193398 12.34459102 -19.85022834 10.96255709 -16 10 C-16 9.34 -16 8.68 -16 8 C-13.09451118 5.95830515 -11.59857954 5 -8 5 C-7.67 4.01 -7.34 3.02 -7 2 C-4.56723614 0.81480735 -2.71982714 0 0 0 Z " fill="#D7092B" transform="translate(326,584)"/>
<path d="M0 0 C4.21276933 2.91357587 7.05187178 5.89061494 8.640625 10.85546875 C9.1076447 16.64651303 8.23037815 21.29133274 6.640625 26.85546875 C5.980625 26.85546875 5.320625 26.85546875 4.640625 26.85546875 C4.558125 27.53609375 4.475625 28.21671875 4.390625 28.91796875 C2.60448971 35.9136653 -2.26882556 42.82745678 -7.359375 47.85546875 C-8.49302232 49.13955268 -9.61755478 50.43172306 -10.734375 51.73046875 C-13.49563688 54.90359952 -16.34409118 57.9195345 -19.359375 60.85546875 C-20.184375 61.68046875 -21.009375 62.50546875 -21.859375 63.35546875 C-22.684375 64.18046875 -23.509375 65.00546875 -24.359375 65.85546875 C-25.184375 66.72171875 -26.009375 67.58796875 -26.859375 68.48046875 C-29.25490463 70.7562219 -31.54363474 72.16602459 -34.359375 73.85546875 C-36.06717473 75.47996118 -37.73488257 77.14766902 -39.359375 78.85546875 C-42.50463597 82.10218975 -45.86619318 84.99421932 -49.359375 87.85546875 C-50.266875 88.61859375 -51.174375 89.38171875 -52.109375 90.16796875 C-53.19235556 91.06422852 -54.27574932 91.95998907 -55.359375 92.85546875 C-56.18308594 93.54640625 -57.00679687 94.23734375 -57.85546875 94.94921875 C-58.74363281 95.68140625 -59.63179687 96.41359375 -60.546875 97.16796875 C-61.38605469 97.86535156 -62.22523438 98.56273437 -63.08984375 99.28125 C-65.359375 100.85546875 -65.359375 100.85546875 -68.359375 100.85546875 C-68.6275 101.49484375 -68.895625 102.13421875 -69.171875 102.79296875 C-70.359375 104.85546875 -70.359375 104.85546875 -73.359375 105.85546875 C-74.019375 106.84546875 -74.679375 107.83546875 -75.359375 108.85546875 C-77.00494066 109.88982431 -78.6764358 110.88310388 -80.359375 111.85546875 C-82.19274552 113.1712282 -84.00473358 114.5112926 -85.80859375 115.8671875 C-87.359375 116.85546875 -87.359375 116.85546875 -89.359375 116.85546875 C-89.359375 117.51546875 -89.359375 118.17546875 -89.359375 118.85546875 C-90.266875 119.26796875 -91.174375 119.68046875 -92.109375 120.10546875 C-95.22090683 121.78090897 -96.97027153 123.31222957 -99.359375 125.85546875 C-102.57194222 128.63390526 -105.8647255 130.79236466 -109.5859375 132.83984375 C-111.34837968 133.84917187 -113.00288789 134.94938987 -114.671875 136.10546875 C-117.359375 137.85546875 -117.359375 137.85546875 -119.359375 137.85546875 C-119.359375 138.51546875 -119.359375 139.17546875 -119.359375 139.85546875 C-123.74399038 142.85546875 -123.74399038 142.85546875 -126.359375 142.85546875 C-126.359375 143.51546875 -126.359375 144.17546875 -126.359375 144.85546875 C-132.109375 147.85546875 -132.109375 147.85546875 -134.359375 147.85546875 C-134.359375 148.51546875 -134.359375 149.17546875 -134.359375 149.85546875 C-140.859375 153.85546875 -140.859375 153.85546875 -145.359375 153.85546875 C-145.359375 152.86546875 -145.359375 151.87546875 -145.359375 150.85546875 C-144.699375 150.85546875 -144.039375 150.85546875 -143.359375 150.85546875 C-143.235625 150.27796875 -143.111875 149.70046875 -142.984375 149.10546875 C-142.35288676 146.83211108 -141.47079309 144.93011585 -140.359375 142.85546875 C-139.699375 142.85546875 -139.039375 142.85546875 -138.359375 142.85546875 C-137.92625 141.46328125 -137.92625 141.46328125 -137.484375 140.04296875 C-136.359375 136.85546875 -136.359375 136.85546875 -134.359375 133.85546875 C-133.699375 133.85546875 -133.039375 133.85546875 -132.359375 133.85546875 C-132.25625 133.29859375 -132.153125 132.74171875 -132.046875 132.16796875 C-130.29872426 126.28782535 -125.89989428 121.43283566 -122.296875 116.57421875 C-120.50564436 114.06071769 -118.93677996 111.50599319 -117.359375 108.85546875 C-115.89642011 106.6543009 -114.42153249 104.46859873 -112.921875 102.29296875 C-112.53966797 101.72900391 -112.15746094 101.16503906 -111.76367188 100.58398438 C-109.5329045 97.34577367 -107.15613845 94.60462772 -104.359375 91.85546875 C-103.36735382 90.15943253 -102.37734108 88.46164594 -101.43359375 86.73828125 C-99.63065894 83.57822823 -97.58999458 80.731794 -95.359375 77.85546875 C-94.699375 77.85546875 -94.039375 77.85546875 -93.359375 77.85546875 C-93.05 77.07171875 -92.740625 76.28796875 -92.421875 75.48046875 C-91.359375 72.85546875 -91.359375 72.85546875 -90.359375 70.85546875 C-89.699375 70.85546875 -89.039375 70.85546875 -88.359375 70.85546875 C-88.070625 70.27796875 -87.781875 69.70046875 -87.484375 69.10546875 C-87.113125 68.36296875 -86.741875 67.62046875 -86.359375 66.85546875 C-86.05 66.15421875 -85.740625 65.45296875 -85.421875 64.73046875 C-84.359375 62.85546875 -84.359375 62.85546875 -81.359375 60.85546875 C-80.8953125 59.92734375 -80.8953125 59.92734375 -80.421875 58.98046875 C-79.13557632 56.40787139 -77.41590789 54.84773499 -75.359375 52.85546875 C-74.699375 51.86546875 -74.039375 50.87546875 -73.359375 49.85546875 C-72.699375 49.85546875 -72.039375 49.85546875 -71.359375 49.85546875 C-70.8953125 48.92734375 -70.8953125 48.92734375 -70.421875 47.98046875 C-69.734375 46.60546875 -69.046875 45.23046875 -68.359375 43.85546875 C-67.699375 43.85546875 -67.039375 43.85546875 -66.359375 43.85546875 C-66.1325 43.29859375 -65.905625 42.74171875 -65.671875 42.16796875 C-64.35184312 39.84219829 -62.83682003 38.24367805 -60.9140625 36.40625 C-58.96937825 34.46645189 -57.17263009 32.41847407 -55.359375 30.35546875 C-52.46084839 27.07083447 -49.50060075 23.91179651 -46.359375 20.85546875 C-45.51375 19.98921875 -44.668125 19.12296875 -43.796875 18.23046875 C-38.28042763 12.85546875 -38.28042763 12.85546875 -35.359375 12.85546875 C-35.359375 12.19546875 -35.359375 11.53546875 -35.359375 10.85546875 C-30.06525735 6.85546875 -30.06525735 6.85546875 -26.359375 6.85546875 C-26.029375 5.86546875 -25.699375 4.87546875 -25.359375 3.85546875 C-17.89483193 -0.57582354 -8.28314121 -4.01814631 0 0 Z " fill="#D7092B" transform="translate(733.359375,163.14453125)"/>
<path d="M0 0 C3.93936444 0.55680063 6.40019641 1.69498575 9.625 4 C12.17796131 5.81234113 14.00688125 7.00229375 17 8 C17.33 8.66 17.66 9.32 18 10 C19.65051288 11.11634152 19.65051288 11.11634152 21.5625 12.125 C22.696875 12.74375 23.83125 13.3625 25 14 C25 14.66 25 15.32 25 16 C25.5775 16.12375 26.155 16.2475 26.75 16.375 C29.02335767 17.00648824 30.9253529 17.88858191 33 19 C33 19.66 33 20.32 33 21 C33.763125 21.268125 34.52625 21.53625 35.3125 21.8125 C37.97946464 22.99092624 38.99148055 23.99148055 41 26 C42.97620986 27.04622875 44.9737129 28.05439935 47 29 C47 29.66 47 30.32 47 31 C48.11375 31.433125 48.11375 31.433125 49.25 31.875 C53.22955691 33.50300055 56.01815555 34.88851014 59 38 C59.99 38.66 60.98 39.32 62 40 C62 40.66 62 41.32 62 42 C62.78375 42.309375 63.5675 42.61875 64.375 42.9375 C67 44 67 44 69 45 C69 45.66 69 46.32 69 47 C69.763125 47.28875 70.52625 47.5775 71.3125 47.875 C74 49 74 49 77 51 C77 51.66 77 52.32 77 53 C77.680625 53.20625 78.36125 53.4125 79.0625 53.625 C82.91639375 55.42895027 86.07787764 57.9010345 89 61 C89 61.66 89 62.32 89 63 C89.72574219 63.2578125 90.45148438 63.515625 91.19921875 63.78125 C94.12047667 65.05242499 96.30872649 66.54016402 98.8125 68.5 C99.60269531 69.1084375 100.39289063 69.716875 101.20703125 70.34375 C101.79871094 70.8903125 102.39039063 71.436875 103 72 C103 72.66 103 73.32 103 74 C103.639375 74.268125 104.27875 74.53625 104.9375 74.8125 C107 76 107 76 108 79 C108.825 79.33 109.65 79.66 110.5 80 C111.325 80.33 112.15 80.66 113 81 C113.33 81.99 113.66 82.98 114 84 C115.31719929 84.69800304 116.65337955 85.36059748 118 86 C119.921875 87.65625 119.921875 87.65625 121.75 89.5 C122.36359375 90.1084375 122.9771875 90.716875 123.609375 91.34375 C125 93 125 93 125 95 C125.639375 95.268125 126.27875 95.53625 126.9375 95.8125 C129 97 129 97 130 100 C130.56460938 100.24878906 131.12921875 100.49757813 131.7109375 100.75390625 C135.2488198 102.67981829 137.22343745 105.76217198 139.625 108.9375 C140.11484375 109.57107422 140.6046875 110.20464844 141.109375 110.85742188 C147 118.51040599 147 118.51040599 147 122 C147.66 122 148.32 122 149 122 C152.32834286 129.41312727 155.02953822 135.84884651 153 144 C151.625 147.4375 151.625 147.4375 150 150 C149.01 150.33 148.02 150.66 147 151 C147 151.66 147 152.32 147 153 C141.17739145 156.10539123 134.72822076 155.52649874 128.4375 154.3125 C124.02817353 152.62893899 120.05113568 150.40679716 116 148 C116 147.34 116 146.68 116 146 C114.7934375 145.5978125 114.7934375 145.5978125 113.5625 145.1875 C112.716875 144.795625 111.87125 144.40375 111 144 C110.67 143.01 110.34 142.02 110 141 C109.319375 140.7525 108.63875 140.505 107.9375 140.25 C103.55010274 138.38302244 100.45841231 135.22737015 97 132 C96.175 131.236875 95.35 130.47375 94.5 129.6875 C93 128 93 128 93 126 C92.34 126 91.68 126 91 126 C89.34375 124.390625 89.34375 124.390625 87.5 122.25 C86.8915625 121.55390625 86.283125 120.8578125 85.65625 120.140625 C84 118 84 118 83.03125 115.859375 C81.71193948 113.48061815 80.40944939 113.19593108 78 112 C75.921875 109.75 75.921875 109.75 73.75 107 C72.97140625 106.01902344 72.1928125 105.03804687 71.390625 104.02734375 C70.20726562 102.52880859 70.20726562 102.52880859 69 101 C68.23171875 100.07316406 67.4634375 99.14632812 66.671875 98.19140625 C65.59679687 96.89009766 65.59679687 96.89009766 64.5 95.5625 C63.8503125 94.78003906 63.200625 93.99757813 62.53125 93.19140625 C61.02291472 91.03279377 60.57073533 89.52120948 60 87 C58.67532254 86.3162955 57.34136367 85.65035814 56 85 C54.875 82.9375 54.875 82.9375 54 81 C53.01 80.505 53.01 80.505 52 80 C51 78.33333333 50 76.66666667 49 75 C48.1408472 73.94522471 47.26518743 72.90371803 46.375 71.875 C44 69 44 69 43 66 C42.01595058 64.98429987 41.01299302 63.98683592 40 63 C38.75982531 61.3780248 37.55344035 59.72986773 36.375 58.0625 C35.76398437 57.20785156 35.15296875 56.35320313 34.5234375 55.47265625 C33 53 33 53 32.4765625 50.74609375 C32.31929687 50.16988281 32.16203125 49.59367188 32 49 C30.515 48.505 30.515 48.505 29 48 C27.98208955 46.32537313 26.97245 44.64352587 26.05078125 42.9140625 C25.04583852 41.08349767 23.94327909 39.39941276 22.75 37.6875 C21 35 21 35 21 33 C19.515 32.505 19.515 32.505 18 32 C17.04478831 30.43072365 16.10368142 28.85100575 15.23828125 27.23046875 C13.75181106 24.55294673 12.10283899 22.00738101 10.4375 19.4375 C8.03967068 15.71038364 5.98190342 11.96380684 4 8 C3.46375 7.484375 2.9275 6.96875 2.375 6.4375 C0.4935748 4.47055547 0.35731038 2.64409683 0 0 Z " fill="#D7092B" transform="translate(591,573)"/>
<path d="M0 0 C0 0.66 0 1.32 0 2 C1.485 2.309375 1.485 2.309375 3 2.625 C10.21736786 4.70162697 15.70081235 10.51966881 21.1875 15.40625 C22.64882086 16.69120455 24.16109763 17.9180772 25.6875 19.125 C30.614803 23.12011054 35.24055645 27.87113715 39 33 C39 33.66 39 34.32 39 35 C39.66 35 40.32 35 41 35 C41.0825 35.61875 41.165 36.2375 41.25 36.875 C42.23825442 39.67505419 43.40359985 39.74113932 46 41 C47.25 43.125 47.25 43.125 48 45 C48.66 45 49.32 45 50 45 C51.35278115 46.98689731 52.68568305 48.98745218 54 51 C54.66 51.33 55.32 51.66 56 52 C56.43054688 52.71929687 56.86109375 53.43859375 57.3046875 54.1796875 C59.62773453 58.04429569 62.56052786 61.32120351 65.50390625 64.71484375 C67.58126053 67.14972488 68.9764568 68.9293704 70 72 C71.3191652 73.34735249 72.65462284 74.67882028 74 76 C75.28760691 77.68017 76.53782565 79.38962219 77.75 81.125 C78.36359375 81.99382812 78.9771875 82.86265625 79.609375 83.7578125 C81 86 81 86 81 88 C82.485 88.495 82.485 88.495 84 89 C87 93.33333333 87 93.33333333 87 96 C87.66 96 88.32 96 89 96 C91.04169485 98.90548882 92 100.40142046 92 104 C92.86625 104.2784375 92.86625 104.2784375 93.75 104.5625 C96.41823165 106.26720355 97.34464762 108.17153014 98.79296875 110.9296875 C100.67915799 114.16489881 103.05495946 116.98677331 105.4140625 119.88671875 C107.77329731 123.03042819 109 125.02659577 109 129 C109.99 129.33 110.98 129.66 112 130 C115 135.22222222 115 135.22222222 115 138 C115.66 138 116.32 138 117 138 C119.04169485 140.90548882 120 142.40142046 120 146 C120.99 146.33 121.98 146.66 123 147 C123.33 148.98 123.66 150.96 124 153 C121.03 152.01 121.03 152.01 118 151 C118 150.34 118 149.68 118 149 C116.7315625 148.6596875 116.7315625 148.6596875 115.4375 148.3125 C111.96140225 146.98526268 109.55409374 145.38628111 106.61328125 143.17578125 C104.83407226 141.87906962 103.01437174 140.88632356 101 140 C101 139.34 101 138.68 101 138 C100.030625 137.731875 99.06125 137.46375 98.0625 137.1875 C97.051875 136.795625 96.04125 136.40375 95 136 C94.67 135.01 94.34 134.02 94 133 C92.14255793 132.38932856 92.14255793 132.38932856 90 132 C87.01948898 130.73554078 85.26492031 129.26492031 83 127 C82.113125 126.484375 81.22625 125.96875 80.3125 125.4375 C79.549375 124.963125 78.78625 124.48875 78 124 C78 123.34 78 122.68 78 122 C77.13375 121.814375 77.13375 121.814375 76.25 121.625 C72.90918334 120.69699537 70.64283116 119.66099813 68.203125 117.15234375 C65.12629116 114.14642984 61.62391982 111.95340358 58.046875 109.5859375 C57.37140625 109.06257813 56.6959375 108.53921875 56 108 C56 107.34 56 106.68 56 106 C55.278125 105.75121094 54.55625 105.50242187 53.8125 105.24609375 C50.7310493 103.8808399 48.57732003 102.22503259 46 100.0625 C43.49150373 97.9655539 41.13982982 96.08149965 38.3125 94.43359375 C36 93 36 93 34 90 C32.34051852 88.98812105 30.67419438 87.9873454 29 87 C28.67 86.34 28.34 85.68 28 85 C26.33720673 83.9935725 24.67016516 82.99414593 23 82 C21.99023099 81.00986539 20.99145867 80.00846899 20 79 C17.92614747 77.22471768 15.83747995 75.46866457 13.7421875 73.71875 C12 72 12 72 11 69 C10.175 68.67 9.35 68.34 8.5 68 C7.675 67.67 6.85 67.34 6 67 C5.67 66.01 5.34 65.02 5 64 C4.01 63.505 4.01 63.505 3 63 C1 62 1 62 0 59 C-1.31992961 58.30717388 -2.65496779 57.64273679 -4 57 C-5.4921875 55.51953125 -5.4921875 55.51953125 -6.875 53.8125 C-7.38546875 53.19246094 -7.8959375 52.57242188 -8.421875 51.93359375 C-8.94265625 51.29550781 -9.4634375 50.65742188 -10 50 C-11.03866285 48.78908366 -12.08025757 47.58067498 -13.125 46.375 C-22 36.01308901 -22 36.01308901 -22 32 C-22.66 32 -23.32 32 -24 32 C-24.67756882 30.44219668 -25.34159457 28.87849904 -26 27.3125 C-26.37125 26.44238281 -26.7425 25.57226562 -27.125 24.67578125 C-28.01870488 21.9427998 -28.16449676 19.85299066 -28 17 C-28.66 17 -29.32 17 -30 17 C-30.70370261 9.96297387 -27.8584396 5.34750265 -23.625 0 C-17.35508556 -4.774781 -6.77180262 -2.57039459 0 0 Z " fill="#D7092B" transform="translate(190,168)"/>
<path d="M0 0 C1.93746094 -0.00386719 1.93746094 -0.00386719 3.9140625 -0.0078125 C8.64032286 0.17355641 10.49408265 0.3465149 14.0625 3.5 C17.74161216 7.67628948 17.67450443 11.30614919 17.57421875 16.63671875 C17.01121503 23.66874558 12.44252242 27.19387197 7.43359375 31.5859375 C5.375 33.125 5.375 33.125 3.375 33.125 C3.375 33.785 3.375 34.445 3.375 35.125 C1.47604102 36.07447949 -0.42323818 37.0233245 -2.32421875 37.96875 C-3.83317597 38.72707145 -5.33610183 39.49754184 -6.83203125 40.28125 C-7.52683594 40.6421875 -8.22164062 41.003125 -8.9375 41.375 C-9.57300781 41.71015625 -10.20851563 42.0453125 -10.86328125 42.390625 C-12.625 43.125 -12.625 43.125 -15.625 43.125 C-15.625 43.785 -15.625 44.445 -15.625 45.125 C-16.41003906 45.37894531 -17.19507813 45.63289063 -18.00390625 45.89453125 C-24.68938248 48.0766393 -24.68938248 48.0766393 -31.1875 50.75 C-35.88232074 52.6279283 -40.64366999 53.35933445 -45.625 54.125 C-45.625 54.785 -45.625 55.445 -45.625 56.125 C-46.72199219 56.39054687 -47.81898438 56.65609375 -48.94921875 56.9296875 C-50.40369247 57.28626815 -51.85811698 57.6430496 -53.3125 58 C-54.03373047 58.17402344 -54.75496094 58.34804688 -55.49804688 58.52734375 C-59.35984964 59.47956909 -62.93124836 60.63782667 -66.625 62.125 C-69.89364492 62.93407052 -73.17682074 63.63613904 -76.46875 64.34375 C-79.54509137 65.02264975 -79.54509137 65.02264975 -82.03125 66.1171875 C-85.47868595 67.45670328 -89.00054502 68.09465574 -92.625 68.75 C-93.32367187 68.8840625 -94.02234375 69.018125 -94.7421875 69.15625 C-98.41291688 69.83498864 -101.89119435 70.28543696 -105.625 70.125 C-105.625 70.785 -105.625 71.445 -105.625 72.125 C-108.52003383 72.63005263 -111.41587953 73.1292022 -114.3125 73.625 C-115.12912109 73.76808594 -115.94574219 73.91117187 -116.78710938 74.05859375 C-120.77478248 74.73665962 -124.56230404 75.32358392 -128.625 75.125 C-128.625 75.785 -128.625 76.445 -128.625 77.125 C-136.545 77.62 -136.545 77.62 -144.625 78.125 C-143.41608912 73.28935648 -142.4295826 72.95137427 -138.3125 70.4375 C-137.34699219 69.83550781 -136.38148438 69.23351562 -135.38671875 68.61328125 C-132.625 67.125 -132.625 67.125 -130.33203125 66.60546875 C-129.76871094 66.44691406 -129.20539062 66.28835938 -128.625 66.125 C-128.13 64.64 -128.13 64.64 -127.625 63.125 C-125.65770975 61.67541771 -123.69935609 60.40835649 -121.625 59.125 C-120.75617187 58.55007813 -119.88734375 57.97515625 -118.9921875 57.3828125 C-118.04601562 56.76148438 -117.09984375 56.14015625 -116.125 55.5 C-115.2278125 54.90960938 -114.330625 54.31921875 -113.40625 53.7109375 C-110.625 52.125 -110.625 52.125 -107.34375 51.1015625 C-105.99796875 50.61816406 -105.99796875 50.61816406 -104.625 50.125 C-104.295 49.135 -103.965 48.145 -103.625 47.125 C-101.02257586 45.47679805 -99.76251221 45.125 -96.625 45.125 C-96.295 44.135 -95.965 43.145 -95.625 42.125 C-92.5625 40.9375 -92.5625 40.9375 -89.625 40.125 C-89.625 39.465 -89.625 38.805 -89.625 38.125 C-88.33586513 37.45345067 -87.04359796 36.78791141 -85.75 36.125 C-85.03070312 35.75375 -84.31140625 35.3825 -83.5703125 35 C-81.625 34.125 -81.625 34.125 -79.625 34.125 C-79.625 33.465 -79.625 32.805 -79.625 32.125 C-78.449375 31.5475 -77.27375 30.97 -76.0625 30.375 C-73.24141696 28.97446232 -70.51483607 27.49178226 -67.8125 25.875 C-64.625 24.125 -64.625 24.125 -61.625 24.125 C-61.13 22.64 -61.13 22.64 -60.625 21.125 C-54.82569418 17.41706177 -46.57612833 13.125 -39.625 13.125 C-39.625 12.465 -39.625 11.805 -39.625 11.125 C-33.125 8.125 -33.125 8.125 -28.625 8.125 C-28.625 7.465 -28.625 6.805 -28.625 6.125 C-26.87683142 5.61863393 -25.12637737 5.12015381 -23.375 4.625 C-22.40046875 4.3465625 -21.4259375 4.068125 -20.421875 3.78125 C-17.625 3.125 -17.625 3.125 -13.625 3.125 C-13.625 2.465 -13.625 1.805 -13.625 1.125 C-9.0337391 0.22949091 -4.67484186 -0.00936842 0 0 Z " fill="#D7092B" transform="translate(769.625,299.875)"/>
<path d="M0 0 C1.92972656 -0.00386719 1.92972656 -0.00386719 3.8984375 -0.0078125 C7.2424251 0.11136526 10.34597949 0.48543872 13.625 1.125 C13.625 1.785 13.625 2.445 13.625 3.125 C14.47771484 3.19847656 14.47771484 3.19847656 15.34765625 3.2734375 C20.33581129 3.75643081 24.85099578 4.60138163 29.625 6.125 C29.625 6.785 29.625 7.445 29.625 8.125 C30.25148437 8.25777344 30.87796875 8.39054687 31.5234375 8.52734375 C32.34070313 8.70394531 33.15796875 8.88054687 34 9.0625 C34.81210938 9.23652344 35.62421875 9.41054688 36.4609375 9.58984375 C38.625 10.125 38.625 10.125 40.625 11.125 C40.625 11.785 40.625 12.445 40.625 13.125 C41.23988281 13.24617188 41.85476562 13.36734375 42.48828125 13.4921875 C43.70064453 13.74355469 43.70064453 13.74355469 44.9375 14 C45.73800781 14.16242188 46.53851563 14.32484375 47.36328125 14.4921875 C49.625 15.125 49.625 15.125 52.625 17.125 C52.625 17.785 52.625 18.445 52.625 19.125 C53.346875 19.24875 54.06875 19.3725 54.8125 19.5 C57.58221894 20.1154931 60.0220354 21.00944374 62.625 22.125 C62.625 22.785 62.625 23.445 62.625 24.125 C63.346875 24.24875 64.06875 24.3725 64.8125 24.5 C67.60700584 25.1210013 70.03759045 25.90316771 72.625 27.125 C73.12 28.115 73.12 28.115 73.625 29.125 C75.03150772 29.91229049 76.47721751 30.63010324 77.9375 31.3125 C83.10818561 33.8122847 88.02700379 36.63859329 92.9609375 39.57421875 C95.15175124 40.84951648 97.34198088 42.02677042 99.625 43.125 C99.625 43.785 99.625 44.445 99.625 45.125 C100.594375 45.393125 101.56375 45.66125 102.5625 45.9375 C103.573125 46.329375 104.58375 46.72125 105.625 47.125 C105.955 48.115 106.285 49.105 106.625 50.125 C109.47479639 51.24180706 109.47479639 51.24180706 112.625 52.125 C113.97221283 52.76315344 115.31247118 53.41825371 116.625 54.125 C116.625 54.785 116.625 55.445 116.625 56.125 C117.594375 56.393125 118.56375 56.66125 119.5625 56.9375 C120.573125 57.329375 121.58375 57.72125 122.625 58.125 C122.955 59.115 123.285 60.105 123.625 61.125 C125.51116238 61.69963715 125.51116238 61.69963715 127.625 62.125 C129.37109375 63.2109375 129.37109375 63.2109375 131.0625 64.5 C134.69475036 67.19514525 138.40572626 69.50181565 142.4375 71.5625 C143.159375 72.078125 143.88125 72.59375 144.625 73.125 C144.625 74.445 144.625 75.765 144.625 77.125 C142.975 77.125 141.325 77.125 139.625 77.125 C139.625 76.465 139.625 75.805 139.625 75.125 C138.46097656 75.05152344 138.46097656 75.05152344 137.2734375 74.9765625 C128.97755726 74.40238463 120.84152483 73.39381868 112.625 72.125 C112.625 71.465 112.625 70.805 112.625 70.125 C112.0165625 70.08761719 111.408125 70.05023438 110.78125 70.01171875 C104.88472015 69.56947901 99.12073294 68.76645994 93.3125 67.6875 C92.64347656 67.56528076 91.97445312 67.44306152 91.28515625 67.31713867 C87.2619735 66.5462624 83.50047964 65.43037125 79.625 64.125 C77.17358704 63.55282867 74.71477483 63.01155704 72.25 62.5 C71.00476563 62.23960937 69.75953125 61.97921875 68.4765625 61.7109375 C67.53554687 61.51757812 66.59453125 61.32421875 65.625 61.125 C65.625 60.465 65.625 59.805 65.625 59.125 C65.068125 59.07601562 64.51125 59.02703125 63.9375 58.9765625 C58.65932735 58.45944423 53.74137635 57.52037537 48.625 56.125 C48.625 55.465 48.625 54.805 48.625 54.125 C47.34625 54.021875 46.0675 53.91875 44.75 53.8125 C37.31064453 52.98330967 30.40335861 50.5043458 23.453125 47.8203125 C20.87112082 46.83826817 18.25173614 45.97868925 15.625 45.125 C15.625 44.465 15.625 43.805 15.625 43.125 C14.903125 43.00125 14.18125 42.8775 13.4375 42.75 C10.66778106 42.1345069 8.2279646 41.24055626 5.625 40.125 C5.625 39.465 5.625 38.805 5.625 38.125 C4.92375 38.0425 4.2225 37.96 3.5 37.875 C-0.07625637 36.94206355 -2.37340687 35.2689951 -5.375 33.125 C-6.40625 32.465 -7.4375 31.805 -8.5 31.125 C-13.05776439 27.9543813 -15.61932491 25.42216562 -17.375 20.125 C-17.67578125 17.1875 -17.67578125 17.1875 -17.6875 14.125 C-17.70425781 13.114375 -17.72101563 12.10375 -17.73828125 11.0625 C-17.32103788 7.68866112 -16.46818435 5.79172667 -14.375 3.125 C-13.385 3.125 -12.395 3.125 -11.375 3.125 C-11.375 2.465 -11.375 1.805 -11.375 1.125 C-7.58899184 -0.08575388 -3.95162529 -0.00788748 0 0 Z " fill="#D7092B" transform="translate(135.375,299.875)"/>
<path d="M0 0 C0.99 0 1.98 0 3 0 C2.52288664 3.87525568 2.04294489 7.75015606 1.5625 11.625 C1.36043945 13.26662109 1.36043945 13.26662109 1.15429688 14.94140625 C0.95610352 16.53662109 0.95610352 16.53662109 0.75390625 18.1640625 C0.63345947 19.13811035 0.5130127 20.1121582 0.38891602 21.11572266 C-0.01205992 24.08943875 -0.49180573 27.04288465 -1 30 C-1.66 30 -2.32 30 -3 30 C-3.07347656 31.21623047 -3.07347656 31.21623047 -3.1484375 32.45703125 C-3.64162798 39.76135227 -4.52007561 46.83026922 -6 54 C-6.66 54 -7.32 54 -8 54 C-8.03738281 54.64324219 -8.07476562 55.28648437 -8.11328125 55.94921875 C-8.713952 64.20549706 -9.8312351 72.71841961 -12.99609375 80.42578125 C-14.26046812 83.66789297 -14.92455191 86.90577519 -15.625 90.3125 C-15.88539063 91.56675781 -16.14578125 92.82101562 -16.4140625 94.11328125 C-16.60742188 95.06589844 -16.80078125 96.01851562 -17 97 C-17.66 97 -18.32 97 -19 97 C-19.1546875 98.670625 -19.1546875 98.670625 -19.3125 100.375 C-20.21881133 107.59996073 -22.69253703 114.4077801 -25.3046875 121.171875 C-26.28673183 123.75387918 -27.14631075 126.37326386 -28 129 C-28.66 129 -29.32 129 -30 129 C-30.08636719 129.556875 -30.17273438 130.11375 -30.26171875 130.6875 C-31.38247249 136.77452948 -33.56192184 140.92572801 -37 146 C-37.72046126 147.24304935 -38.42952724 148.49279924 -39.125 149.75 C-42.14349776 154.98206278 -42.14349776 154.98206278 -44 157 C-44.99 157 -45.98 157 -47 157 C-47.2475 157.639375 -47.495 158.27875 -47.75 158.9375 C-49 161 -49 161 -51.125 161.75 C-51.74375 161.8325 -52.3625 161.915 -53 162 C-53 162.66 -53 163.32 -53 164 C-59.24901954 164.5658066 -63.53556631 164.43580916 -68.625 160.58203125 C-72.33958989 156.30814231 -72.35323511 151.41777027 -72.3125 146 C-72.30903564 145.25177979 -72.30557129 144.50355957 -72.30200195 143.73266602 C-72.05265605 130.80387453 -67.4610293 119.40894423 -62.625 107.625 C-62.32190918 106.88620605 -62.01881836 106.14741211 -61.70654297 105.38623047 C-59.65443179 100.44058837 -57.43982948 95.62404677 -54.9453125 90.8828125 C-53.87455431 88.86210105 -53.87455431 88.86210105 -53 86 C-52.34 86 -51.68 86 -51 86 C-50.79503906 85.37351562 -50.59007812 84.74703125 -50.37890625 84.1015625 C-50.10949219 83.28429687 -49.84007812 82.46703125 -49.5625 81.625 C-49.29566406 80.81289063 -49.02882813 80.00078125 -48.75390625 79.1640625 C-48 77 -48 77 -47 75 C-46.34 75 -45.68 75 -45 75 C-44.88398438 74.26652344 -44.76796875 73.53304687 -44.6484375 72.77734375 C-43.9932248 69.97098091 -43.07910373 68.03447634 -41.625 65.5625 C-39.62428048 62.09458616 -37.75443449 58.60120764 -36 55 C-35.34 55 -34.68 55 -34 55 C-33.79375 54.21625 -33.5875 53.4325 -33.375 52.625 C-31.79812073 48.46777285 -29.67575586 44.94131753 -27.33984375 41.171875 C-25.99453824 39.06323696 -25.99453824 39.06323696 -25 37 C-24.34 37 -23.68 37 -23 37 C-22.731875 36.278125 -22.46375 35.55625 -22.1875 34.8125 C-20.99979313 31.99951004 -19.59608664 29.6019924 -18 27 C-17.34902344 25.93523438 -16.69804687 24.87046875 -16.02734375 23.7734375 C-15.33769531 22.65195312 -14.64804687 21.53046875 -13.9375 20.375 C-13.58623047 19.80265625 -13.23496094 19.2303125 -12.87304688 18.640625 C-11.28794629 16.0637129 -9.67846757 13.51770135 -8 11 C-7.34 11 -6.68 11 -6 11 C-5.814375 10.13375 -5.814375 10.13375 -5.625 9.25 C-4.99351176 6.97664233 -4.11141809 5.0746471 -3 3 C-2.34 3 -1.68 3 -1 3 C-0.67 2.01 -0.34 1.02 0 0 Z " fill="#D7092B" transform="translate(385,626)"/>
<path d="M0 0 C2.90307529 -0.17594396 5.07682216 0.02338066 7.875 0.875 C13.44572009 2.52520411 19.20588466 3.24521823 24.9375 4.125 C26.09830078 4.30675781 27.25910156 4.48851562 28.45507812 4.67578125 C31.30279959 5.12110395 34.15108471 5.56239132 37 6 C37 6.66 37 7.32 37 8 C37.99966797 8.07347656 37.99966797 8.07347656 39.01953125 8.1484375 C45.77757799 8.69664269 52.35188914 9.67552143 59 11 C59 11.66 59 12.32 59 13 C59.68964844 13.04898438 60.37929688 13.09796875 61.08984375 13.1484375 C67.95150643 13.69435854 74.85915931 14.27524364 81.26953125 16.9453125 C85.35436051 18.52314354 89.59725935 19.42237706 93.85351562 20.41210938 C97.9942944 21.40668878 101.91364917 22.64642228 105.8815918 24.19018555 C108.1963563 25.0750621 110.52939041 25.8841675 112.875 26.68359375 C114.13570312 27.11575195 114.13570312 27.11575195 115.421875 27.55664062 C117.13943344 28.14347309 118.85818893 28.72681369 120.578125 29.30664062 C125.35154315 30.95024856 129.84623562 32.78574475 134.30859375 35.15258789 C136.17209177 36.13637569 136.17209177 36.13637569 139 37 C139 37.66 139 38.32 139 39 C139.70125 39.103125 140.4025 39.20625 141.125 39.3125 C144.39137647 40.09359003 147.0471852 41.42058743 150 43 C150 43.66 150 44.32 150 45 C150.74765625 45.2371875 151.4953125 45.474375 152.265625 45.71875 C155.43800349 47.20523592 156.6923297 48.69574136 158.75 51.5 C159.34296875 52.2940625 159.9359375 53.088125 160.546875 53.90625 C163.31053737 57.88830116 163.33524816 61.26241422 163 66 C162.20359366 69.83723053 161.71486382 71.43563383 158.625 73.875 C156 75 156 75 152 75 C152 75.66 152 76.32 152 77 C149.62468606 77.0543965 147.25064117 77.09385864 144.875 77.125 C144.20984375 77.14175781 143.5446875 77.15851563 142.859375 77.17578125 C138.46259291 77.21888696 135.09100756 76.54780099 131 75 C128.79373183 74.38833485 126.58527397 73.78452803 124.375 73.1875 C117.66207995 71.28162364 111.36136196 68.85193946 105 66 C103.94683594 65.52820313 102.89367187 65.05640625 101.80859375 64.5703125 C99.20049156 63.39117052 96.59775942 62.20171942 94 61 C94 60.34 94 59.68 94 59 C93.33484375 58.91234375 92.6696875 58.8246875 91.984375 58.734375 C88.08877976 57.77577303 84.80295231 56.08162546 81.25 54.25 C80.19135742 53.71246094 80.19135742 53.71246094 79.11132812 53.1640625 C74.00923924 50.55913925 68.96079529 47.86623728 64 45 C64 44.34 64 43.68 64 43 C63.13117187 42.73832031 62.26234375 42.47664062 61.3671875 42.20703125 C55.83016925 40.22218364 51.01460886 37.03756986 46 34 C45.15695312 33.505 44.31390625 33.01 43.4453125 32.5 C41.59334879 31.39277615 39.79001013 30.20481451 38 29 C38 28.34 38 27.68 38 27 C37.4225 26.87625 36.845 26.7525 36.25 26.625 C33.97664233 25.99351176 32.0746471 25.11141809 30 24 C30 23.34 30 22.68 30 22 C28.7625 21.690625 28.7625 21.690625 27.5 21.375 C23.66538272 19.86854321 21.01316586 17.90608449 17.83203125 15.33984375 C15.93345432 13.80849826 15.93345432 13.80849826 13 13 C12.67 12.34 12.34 11.68 12 11 C11.01 10.505 10.02 10.01 9 9.5 C6 8 6 8 5 6 C4.154375 5.525625 3.30875 5.05125 2.4375 4.5625 C1.633125 4.046875 0.82875 3.53125 0 3 C0 2.01 0 1.02 0 0 Z " fill="#D7092B" transform="translate(618,528)"/>
<path d="M0 0 C-1.36454907 4.58984686 -2.94046736 5.66963359 -7 8 C-9.85143456 10.05271339 -12.6630782 12.15348041 -15.4765625 14.2578125 C-18 16 -18 16 -21 17 C-21.639375 17.639375 -22.27875 18.27875 -22.9375 18.9375 C-24.93094872 20.93094872 -26.39299861 21.99083817 -29 23 C-29.99 23 -30.98 23 -32 23 C-32.33 23.99 -32.66 24.98 -33 26 C-36 28 -36 28 -39 28 C-39.495 29.485 -39.495 29.485 -40 31 C-41.9717304 32.05464649 -43.97762948 33.04605164 -46 34 C-47.051875 34.70125 -48.10375 35.4025 -49.1875 36.125 C-52 38 -52 38 -55 39 C-55.44472656 39.45117188 -55.88945312 39.90234375 -56.34765625 40.3671875 C-58.48556005 42.47982057 -60.79621306 43.69863337 -63.4375 45.125 C-64.38496094 45.64320313 -65.33242187 46.16140625 -66.30859375 46.6953125 C-68.58574366 47.79918488 -70.53109526 48.52139435 -73 49 C-73 49.66 -73 50.32 -73 51 C-78.625 54 -78.625 54 -82 54 C-82 54.66 -82 55.32 -82 56 C-83.43429001 56.67354499 -84.87257057 57.33859701 -86.3125 58 C-87.11300781 58.37125 -87.91351563 58.7425 -88.73828125 59.125 C-91 60 -91 60 -94 60 C-94 60.66 -94 61.32 -94 62 C-120.38493339 75.93454295 -120.38493339 75.93454295 -134 76 C-134 76.66 -134 77.32 -134 78 C-137.908688 78.92055082 -141.55092235 79.13429682 -145.5625 79.125 C-146.67753906 79.12757813 -147.79257813 79.13015625 -148.94140625 79.1328125 C-154.8885666 78.87457054 -154.8885666 78.87457054 -157.66796875 76.6875 C-161.21623079 72.74701362 -162.91081767 69.6222987 -163.17578125 64.27734375 C-162.82663341 59.75393957 -161.48773779 55.73047395 -158.515625 52.2734375 C-157 51 -157 51 -155 51 C-155 50.34 -155 49.68 -155 49 C-149.8458735 44.60291824 -144.66626117 41.30426849 -138 40 C-138 39.34 -138 38.68 -138 38 C-136.73160474 37.49384702 -135.46016898 36.99530901 -134.1875 36.5 C-133.47980469 36.2215625 -132.77210938 35.943125 -132.04296875 35.65625 C-130 35 -130 35 -127 35 C-127 34.34 -127 33.68 -127 33 C-125.58603098 32.49242138 -124.16868271 31.99425075 -122.75 31.5 C-121.56664062 31.08234375 -121.56664062 31.08234375 -120.359375 30.65625 C-118 30 -118 30 -114 30 C-114 29.34 -114 28.68 -114 28 C-112.80117187 27.63648438 -112.80117187 27.63648438 -111.578125 27.265625 C-105.93014246 25.54206225 -100.32074486 23.77231101 -94.75 21.8125 C-89.78057414 20.12738884 -85.22857335 19.34857156 -80 19 C-80 18.34 -80 17.68 -80 17 C-77.77228658 16.49356447 -75.54275924 15.9951038 -73.3125 15.5 C-71.45044922 15.08234375 -71.45044922 15.08234375 -69.55078125 14.65625 C-66.57601782 14.10645874 -64.00631398 13.86204295 -61 14 C-61 13.34 -61 12.68 -61 12 C-58.6263603 11.49265716 -56.25142575 10.99397614 -53.875 10.5 C-53.20984375 10.35691406 -52.5446875 10.21382812 -51.859375 10.06640625 C-47.83943578 9.2387717 -44.10095101 8.84669342 -40 9 C-40 8.34 -40 7.68 -40 7 C-36.2931535 6.32488531 -32.58431256 5.66141959 -28.875 5 C-27.82828125 4.80921875 -26.7815625 4.6184375 -25.703125 4.421875 C-24.68476563 4.24140625 -23.66640625 4.0609375 -22.6171875 3.875 C-21.68503418 3.70742188 -20.75288086 3.53984375 -19.79248047 3.3671875 C-16.8315694 2.9778528 -13.98298238 2.93841585 -11 3 C-11 2.34 -11 1.68 -11 1 C-3.375 0 -3.375 0 0 0 Z " fill="#D7092B" transform="translate(287,527)"/>
<path d="M0 0 C3.30026822 3.61457948 4 5.08470885 4 10 C4.66 10 5.32 10 6 10 C6 13.63 6 17.26 6 21 C5.34 21 4.68 21 4 21 C4.04125 21.98097656 4.0825 22.96195313 4.125 23.97265625 C4.125 28.32795825 3.13270516 32.25490965 2 36.4375 C1.71382812 37.53481445 1.71382812 37.53481445 1.421875 38.65429688 C0.95549597 40.43819666 0.47881722 42.21939845 0 44 C-0.66 44 -1.32 44 -2 44 C-2.103125 45.010625 -2.20625 46.02125 -2.3125 47.0625 C-3.01098795 51.06293099 -4.33462106 54.34279942 -6 58 C-6.27610107 58.60706787 -6.55220215 59.21413574 -6.83666992 59.83959961 C-7.69547832 61.70946984 -8.56440038 63.57426263 -9.4375 65.4375 C-9.74244385 66.08984619 -10.0473877 66.74219238 -10.36157227 67.41430664 C-12.50323244 71.98018742 -14.70786739 76.50742009 -17 81 C-17.66 81 -18.32 81 -19 81 C-19.185625 82.0828125 -19.185625 82.0828125 -19.375 83.1875 C-19.9904931 85.95721894 -20.88444374 88.3970354 -22 91 C-22.66 91 -23.32 91 -24 91 C-24.18175781 91.63808594 -24.36351562 92.27617187 -24.55078125 92.93359375 C-24.80214844 93.75988281 -25.05351563 94.58617187 -25.3125 95.4375 C-25.55613281 96.26121094 -25.79976562 97.08492188 -26.05078125 97.93359375 C-26.36402344 98.61550781 -26.67726563 99.29742187 -27 100 C-27.99 100.33 -28.98 100.66 -30 101 C-30.12375 101.7425 -30.2475 102.485 -30.375 103.25 C-30.95486701 105.80141485 -31.73708739 107.7267573 -33 110 C-33.66 110 -34.32 110 -35 110 C-35.433125 111.36125 -35.433125 111.36125 -35.875 112.75 C-36.76531776 115.32202908 -37.71494413 117.61346766 -39 120 C-39.66 120 -40.32 120 -41 120 C-41.268125 120.928125 -41.53625 121.85625 -41.8125 122.8125 C-42.99171887 125.9777717 -43.73191472 126.73191472 -46 129 C-47.19599068 131.03232242 -47.19599068 131.03232242 -48.1875 133.1875 C-48.53167969 133.90292969 -48.87585938 134.61835938 -49.23046875 135.35546875 C-49.61138672 136.16951172 -49.61138672 136.16951172 -50 137 C-50.66 137 -51.32 137 -52 137 C-52.226875 137.845625 -52.45375 138.69125 -52.6875 139.5625 C-54.01473732 143.03859775 -55.61371889 145.44590626 -57.82421875 148.38671875 C-59.12093038 150.16592774 -60.11367644 151.98562826 -61 154 C-61.66 154 -62.32 154 -63 154 C-63.0825 154.556875 -63.165 155.11375 -63.25 155.6875 C-64.23895541 158.73677919 -65.84757466 160.65189963 -68 163 C-68.66 163 -69.32 163 -70 163 C-70.09038099 157.84828377 -69.84681133 153.08086796 -69 148 C-68.34 148 -67.68 148 -67 148 C-66.96261719 147.25878906 -66.92523437 146.51757812 -66.88671875 145.75390625 C-66.47271079 139.12166106 -65.71575462 132.66585784 -64.5625 126.125 C-64.44028076 125.4244751 -64.31806152 124.7239502 -64.19213867 124.00219727 C-63.60251755 120.7744143 -62.90822117 117.67931395 -62.00390625 114.51953125 C-60.87473535 110.5608426 -60.10087732 106.61037711 -59.375 102.5625 C-59.2409375 101.83095703 -59.106875 101.09941406 -58.96875 100.34570312 C-58.64275312 98.56436303 -58.320935 96.78225902 -58 95 C-57.34 95 -56.68 95 -56 95 C-55.896875 93.80375 -55.79375 92.6075 -55.6875 91.375 C-54.9741815 84.81876379 -53.45310124 78.42471808 -52 72 C-51.34 72 -50.68 72 -50 72 C-49.896875 70.72125 -49.79375 69.4425 -49.6875 68.125 C-49.10029028 62.84838309 -47.66710097 58.02500578 -46 53 C-45.73832031 52.20078125 -45.47664062 51.4015625 -45.20703125 50.578125 C-44.48112615 48.38198572 -43.74268735 46.19051044 -43 44 C-42.608125 42.824375 -42.21625 41.64875 -41.8125 40.4375 C-41.544375 39.633125 -41.27625 38.82875 -41 38 C-40.34 38 -39.68 38 -39 38 C-38.87882813 37.40832031 -38.75765625 36.81664062 -38.6328125 36.20703125 C-37.73255357 31.96196415 -36.79543379 27.97560339 -35 24 C-34.34 24 -33.68 24 -33 24 C-32.814375 22.88625 -32.814375 22.88625 -32.625 21.75 C-32.04513299 19.19858515 -31.26291261 17.2732427 -30 15 C-29.34 15 -28.68 15 -28 15 C-27.896875 14.443125 -27.79375 13.88625 -27.6875 13.3125 C-25.90490015 7.31648232 -22.03270109 3.48417768 -17 0 C-11.22529753 -2.61495961 -5.83170074 -2.3326803 0 0 Z " fill="#D7092B" transform="translate(601,114)"/>
<path d="M0 0 C1.75 0.0625 1.75 0.0625 4 1 C5.06564813 2.71149548 6.12432084 4.43198771 7.05078125 6.22265625 C8.01762761 8.15397223 8.01762761 8.15397223 9.75 10.25 C11 12 11 12 11 15 C11.61875 15.2475 12.2375 15.495 12.875 15.75 C15.39525827 17.23250486 16.01231659 18.28387064 17 21 C17 21.99 17 22.98 17 24 C17.99 24.33 18.98 24.66 20 25 C21.1875 28.0625 21.1875 28.0625 22 31 C22.66 31 23.32 31 24 31 C28 37.625 28 37.625 28 41 C29.485 41.495 29.485 41.495 31 42 C32.1875 45.0625 32.1875 45.0625 33 48 C33.66 48 34.32 48 35 48 C35.67154933 49.28913487 36.33708859 50.58140204 37 51.875 C37.37125 52.59429688 37.7425 53.31359375 38.125 54.0546875 C39 56 39 56 39 58 C39.66 58 40.32 58 41 58 C44 63.625 44 63.625 44 67 C44.66 67 45.32 67 46 67 C49.57324425 73.3885276 52.99840194 79.8488685 56.3125 86.375 C56.83650391 87.39110352 56.83650391 87.39110352 57.37109375 88.42773438 C59.13356209 91.92838507 60.48067538 95.10130212 61 99 C61.66 99 62.32 99 63 99 C63.67305018 100.60149886 64.33822227 102.20631029 65 103.8125 C65.37125 104.70582031 65.7425 105.59914063 66.125 106.51953125 C67 109 67 109 67 112 C67.66 112 68.32 112 69 112 C69.50757862 113.41396902 70.00574925 114.83131729 70.5 116.25 C70.7784375 117.03890625 71.056875 117.8278125 71.34375 118.640625 C72 121 72 121 72 125 C72.66 125 73.32 125 74 125 C79.7421875 149.71191406 79.7421875 149.71191406 74 160 C73.34 160 72.68 160 72 160 C72 160.66 72 161.32 72 162 C66.7775461 164.61122695 61.74030635 164.79164406 56.1875 163.1875 C54.00283415 162.00153854 52.66764721 160.8192515 51 159 C50.01 158.34 49.02 157.68 48 157 C46.95355934 155.36209288 45.9601817 153.68991979 45 152 C44.278125 150.96875 43.55625 149.9375 42.8125 148.875 C41 146 41 146 41 143 C40.34 143 39.68 143 39 143 C38.3291288 141.3767313 37.66342971 139.75132422 37 138.125 C36.62875 137.22007812 36.2575 136.31515625 35.875 135.3828125 C35 133 35 133 35 131 C34.34 131 33.68 131 33 131 C32.49242138 129.58603098 31.99425075 128.16868271 31.5 126.75 C31.08234375 125.56664062 31.08234375 125.56664062 30.65625 124.359375 C30 122 30 122 30 118 C29.34 118 28.68 118 28 118 C27.67386719 116.865625 27.34773437 115.73125 27.01171875 114.5625 C26.5704756 113.04161934 26.1290601 111.52078867 25.6875 110 C25.36749023 108.88431641 25.36749023 108.88431641 25.04101562 107.74609375 C23.5794699 102.72884725 21.85654421 97.88429675 20 93 C17.45930735 84.95447328 15.70140985 76.65199437 13.80126953 68.43676758 C12.96662867 64.86430677 12.12719163 61.3754281 10.94921875 57.8984375 C9.71436048 54.12780033 9.04345403 50.34249933 8.375 46.4375 C8.2409375 45.69564453 8.106875 44.95378906 7.96875 44.18945312 C7.30978304 40.41384143 6.83229274 36.84964394 7 33 C6.34 33 5.68 33 5 33 C4.88406494 32.27820557 4.76812988 31.55641113 4.64868164 30.81274414 C4.12414346 27.56197051 3.59340709 24.31223927 3.0625 21.0625 C2.88009766 19.92619141 2.69769531 18.78988281 2.50976562 17.61914062 C2.33251953 16.53955078 2.15527344 15.45996094 1.97265625 14.34765625 C1.81031494 13.34742432 1.64797363 12.34719238 1.48071289 11.31665039 C1.23094682 9.04804965 1.23094682 9.04804965 0 8 C-0.14115161 5.32941149 -0.04247107 2.67567762 0 0 Z " fill="#D7092B" transform="translate(538,612)"/>
<path d="M0 0 C0.92683594 -0.00515625 1.85367187 -0.0103125 2.80859375 -0.015625 C8.65524571 0.54830739 11.75302913 2.896319 15.5625 7.25 C21.7165755 14.91300748 25.67989365 23.30510925 29.5625 32.25 C30.01625 33.28511719 30.47 34.32023437 30.9375 35.38671875 C41.5625 60.25585938 41.5625 60.25585938 41.5625 70.25 C42.2225 70.25 42.8825 70.25 43.5625 70.25 C43.82804687 71.41917969 44.09359375 72.58835937 44.3671875 73.79296875 C44.72374851 75.34119417 45.08053102 76.88936859 45.4375 78.4375 C45.61152344 79.20642578 45.78554688 79.97535156 45.96484375 80.76757812 C46.89301566 84.77246804 48.03221003 88.4304456 49.5625 92.25 C50.15230442 94.73908287 50.69065993 97.24070673 51.1875 99.75 C51.57808594 101.68359375 51.57808594 101.68359375 51.9765625 103.65625 C52.46017115 106.62238304 52.68899997 109.26000076 52.5625 112.25 C53.2225 112.25 53.8825 112.25 54.5625 112.25 C54.67319824 112.88502441 54.78389648 113.52004883 54.89794922 114.17431641 C55.4064181 117.0753933 55.92189574 119.97518313 56.4375 122.875 C56.69853516 124.37353516 56.69853516 124.37353516 56.96484375 125.90234375 C57.99775284 131.68475942 57.99775284 131.68475942 59.59375 137.328125 C61.00826864 141.59449573 61.55408673 145.9346437 62.1875 150.375 C62.3215625 151.26832031 62.455625 152.16164063 62.59375 153.08203125 C63.15006479 156.8797312 63.5625 160.39736248 63.5625 164.25 C62.5725 163.92 61.5825 163.59 60.5625 163.25 C60.22916667 161.91666667 59.89583333 160.58333333 59.5625 159.25 C58.5725 158.92 57.5825 158.59 56.5625 158.25 C55.05040837 156.1249764 53.69776617 154.04900338 52.375 151.8125 C52.00697266 151.21373047 51.63894531 150.61496094 51.25976562 149.99804688 C48.5625 145.52929325 48.5625 145.52929325 48.5625 143.25 C47.5725 142.92 46.5825 142.59 45.5625 142.25 C44.15916597 140.05985944 42.90716933 137.91337648 41.6875 135.625 C39.49497582 131.63405092 37.34133778 127.72916003 34.625 124.0625 C32.5625 121.25 32.5625 121.25 31.5625 118.25 C30.5725 117.755 30.5725 117.755 29.5625 117.25 C28.4140625 115.4296875 28.4140625 115.4296875 27.1875 113.125 C25.5999687 110.16663307 23.97817355 107.25323923 22.25 104.375 C20.5625 101.25 20.5625 101.25 20.5625 98.25 C19.9025 98.25 19.2425 98.25 18.5625 98.25 C15.5625 92.5 15.5625 92.5 15.5625 90.25 C14.9025 90.25 14.2425 90.25 13.5625 90.25 C12.89130451 88.7937455 12.22568193 87.33492133 11.5625 85.875 C11.19125 85.06289062 10.82 84.25078125 10.4375 83.4140625 C9.5625 81.25 9.5625 81.25 9.5625 79.25 C8.9025 79.25 8.2425 79.25 7.5625 79.25 C6.24057201 76.5459195 4.92985179 73.83730732 3.625 71.125 C3.06522461 69.98417969 3.06522461 69.98417969 2.49414062 68.8203125 C0.48426574 64.61949291 -0.96492026 60.94579236 -1.4375 56.25 C-2.0975 56.25 -2.7575 56.25 -3.4375 56.25 C-3.69144531 55.46496094 -3.94539063 54.67992187 -4.20703125 53.87109375 C-6.37739545 47.11857753 -6.37739545 47.11857753 -9.0625 40.5625 C-12.01091486 33.45950058 -12.68011144 26.89226046 -12.4375 19.25 C-13.0975 19.25 -13.7575 19.25 -14.4375 19.25 C-14.4375 17.93 -14.4375 16.61 -14.4375 15.25 C-13.7775 15.25 -13.1175 15.25 -12.4375 15.25 C-12.499375 14.21875 -12.56125 13.1875 -12.625 12.125 C-12.42240162 7.93796673 -11.71061598 5.74085668 -9.4375 2.25 C-6.28936369 0.19988916 -3.71402756 -0.02060487 0 0 Z " fill="#D7092B" transform="translate(313.4375,112.75)"/>
</svg>
